<mxfile host="app.diagrams.net" modified="2022-12-13T07:00:58.163Z" agent="5.0 (Macintosh; Intel Mac OS X 10_15_7) AppleWebKit/537.36 (KHTML, like Gecko) Chrome/107.0.0.0 Safari/537.36" etag="VHTuJ9Cdc-YB79WwZ0WJ" version="20.6.2" type="github">
  <diagram id="C5RBs43oDa-KdzZeNtuy" name="Page-1">
    <mxGraphModel dx="2621" dy="808" grid="1" gridSize="10" guides="1" tooltips="1" connect="1" arrows="1" fold="1" page="1" pageScale="1" pageWidth="827" pageHeight="1169" math="0" shadow="0">
      <root>
        <mxCell id="WIyWlLk6GJQsqaUBKTNV-0" />
        <mxCell id="WIyWlLk6GJQsqaUBKTNV-1" parent="WIyWlLk6GJQsqaUBKTNV-0" />
        <mxCell id="HQCcLXb8eK1zLoKDgTB1-10" value="" style="edgeStyle=orthogonalEdgeStyle;rounded=0;orthogonalLoop=1;jettySize=auto;html=1;" edge="1" parent="WIyWlLk6GJQsqaUBKTNV-1" source="WIyWlLk6GJQsqaUBKTNV-3" target="HQCcLXb8eK1zLoKDgTB1-0">
          <mxGeometry relative="1" as="geometry" />
        </mxCell>
        <mxCell id="WIyWlLk6GJQsqaUBKTNV-3" value="confirm-rollout&amp;nbsp;" style="rounded=1;whiteSpace=wrap;html=1;fontSize=12;glass=0;strokeWidth=1;shadow=0;" parent="WIyWlLk6GJQsqaUBKTNV-1" vertex="1">
          <mxGeometry x="-200" y="640" width="120" height="40" as="geometry" />
        </mxCell>
        <mxCell id="HQCcLXb8eK1zLoKDgTB1-5" value="" style="edgeStyle=orthogonalEdgeStyle;rounded=0;orthogonalLoop=1;jettySize=auto;html=1;" edge="1" parent="WIyWlLk6GJQsqaUBKTNV-1" source="HQCcLXb8eK1zLoKDgTB1-0" target="HQCcLXb8eK1zLoKDgTB1-1">
          <mxGeometry relative="1" as="geometry" />
        </mxCell>
        <mxCell id="HQCcLXb8eK1zLoKDgTB1-0" value="pre-rollout" style="rounded=1;whiteSpace=wrap;html=1;fontSize=12;glass=0;strokeWidth=1;shadow=0;" vertex="1" parent="WIyWlLk6GJQsqaUBKTNV-1">
          <mxGeometry x="-40" y="640" width="120" height="40" as="geometry" />
        </mxCell>
        <mxCell id="HQCcLXb8eK1zLoKDgTB1-6" value="" style="edgeStyle=orthogonalEdgeStyle;rounded=0;orthogonalLoop=1;jettySize=auto;html=1;" edge="1" parent="WIyWlLk6GJQsqaUBKTNV-1" source="HQCcLXb8eK1zLoKDgTB1-1" target="HQCcLXb8eK1zLoKDgTB1-2">
          <mxGeometry relative="1" as="geometry" />
        </mxCell>
        <mxCell id="HQCcLXb8eK1zLoKDgTB1-1" value="rollout" style="rounded=1;whiteSpace=wrap;html=1;fontSize=12;glass=0;strokeWidth=1;shadow=0;" vertex="1" parent="WIyWlLk6GJQsqaUBKTNV-1">
          <mxGeometry x="120" y="640" width="120" height="40" as="geometry" />
        </mxCell>
        <mxCell id="HQCcLXb8eK1zLoKDgTB1-23" value="" style="edgeStyle=orthogonalEdgeStyle;rounded=0;orthogonalLoop=1;jettySize=auto;html=1;" edge="1" parent="WIyWlLk6GJQsqaUBKTNV-1" source="HQCcLXb8eK1zLoKDgTB1-2" target="HQCcLXb8eK1zLoKDgTB1-19">
          <mxGeometry relative="1" as="geometry" />
        </mxCell>
        <mxCell id="HQCcLXb8eK1zLoKDgTB1-2" value="confirm-traffic-increase (10%)" style="rounded=1;whiteSpace=wrap;html=1;fontSize=12;glass=0;strokeWidth=1;shadow=0;" vertex="1" parent="WIyWlLk6GJQsqaUBKTNV-1">
          <mxGeometry x="280" y="640" width="120" height="40" as="geometry" />
        </mxCell>
        <mxCell id="HQCcLXb8eK1zLoKDgTB1-9" value="" style="edgeStyle=orthogonalEdgeStyle;rounded=0;orthogonalLoop=1;jettySize=auto;html=1;" edge="1" parent="WIyWlLk6GJQsqaUBKTNV-1" source="HQCcLXb8eK1zLoKDgTB1-3" target="HQCcLXb8eK1zLoKDgTB1-4">
          <mxGeometry relative="1" as="geometry" />
        </mxCell>
        <mxCell id="HQCcLXb8eK1zLoKDgTB1-3" value="&lt;span style=&quot;&quot; data-slate-fragment=&quot;JTdCJTIyb2JqZWN0JTIyJTNBJTIyZG9jdW1lbnQlMjIlMkMlMjJkYXRhJTIyJTNBJTdCJTdEJTJDJTIybm9kZXMlMjIlM0ElNUIlN0IlMjJvYmplY3QlMjIlM0ElMjJibG9jayUyMiUyQyUyMnR5cGUlMjIlM0ElMjJwYXJhZ3JhcGglMjIlMkMlMjJpc1ZvaWQlMjIlM0FmYWxzZSUyQyUyMmRhdGElMjIlM0ElN0IlN0QlMkMlMjJub2RlcyUyMiUzQSU1QiU3QiUyMm9iamVjdCUyMiUzQSUyMnRleHQlMjIlMkMlMjJsZWF2ZXMlMjIlM0ElNUIlN0IlMjJvYmplY3QlMjIlM0ElMjJsZWFmJTIyJTJDJTIydGV4dCUyMiUzQSUyMmNvbmZpcm0tcHJvbW90aW9uJTIyJTJDJTIybWFya3MlMjIlM0ElNUIlN0IlMjJvYmplY3QlMjIlM0ElMjJtYXJrJTIyJTJDJTIydHlwZSUyMiUzQSUyMmJvbGQlMjIlMkMlMjJkYXRhJTIyJTNBJTdCJTdEJTdEJTVEJTJDJTIyc2VsZWN0aW9ucyUyMiUzQSU1QiU1RCU3RCU1RCUyQyUyMmtleSUyMiUzQSUyMjU2MjQzMmU4YWViZTQwMWY4YmY4NDFhNDQ4YjgwNmU1JTIyJTdEJTVEJTJDJTIya2V5JTIyJTNBJTIyYmI5YzJkNzZhZDNiNDA0NWFlYzY3MjUyYTk2M2Q2YzAlMjIlN0QlNUQlMkMlMjJrZXklMjIlM0ElMjI1NzRiZTI3MGRiNjI0ZGIzODFmYjM1NDdlNjJjNjMxZiUyMiU3RA==&quot;&gt;confirm-promotion&lt;/span&gt;" style="rounded=1;whiteSpace=wrap;html=1;fontSize=12;glass=0;strokeWidth=1;shadow=0;" vertex="1" parent="WIyWlLk6GJQsqaUBKTNV-1">
          <mxGeometry x="600" y="640" width="120" height="40" as="geometry" />
        </mxCell>
        <mxCell id="HQCcLXb8eK1zLoKDgTB1-4" value="post-rollout&amp;nbsp;" style="rounded=1;whiteSpace=wrap;html=1;fontSize=12;glass=0;strokeWidth=1;shadow=0;" vertex="1" parent="WIyWlLk6GJQsqaUBKTNV-1">
          <mxGeometry x="760" y="640" width="120" height="40" as="geometry" />
        </mxCell>
        <mxCell id="HQCcLXb8eK1zLoKDgTB1-11" value="rollback" style="rounded=1;whiteSpace=wrap;html=1;fontSize=12;glass=0;strokeWidth=1;shadow=0;" vertex="1" parent="WIyWlLk6GJQsqaUBKTNV-1">
          <mxGeometry x="120" y="740" width="120" height="40" as="geometry" />
        </mxCell>
        <mxCell id="HQCcLXb8eK1zLoKDgTB1-13" value="" style="edgeStyle=orthogonalEdgeStyle;rounded=0;orthogonalLoop=1;jettySize=auto;html=1;" edge="1" parent="WIyWlLk6GJQsqaUBKTNV-1" source="HQCcLXb8eK1zLoKDgTB1-12" target="WIyWlLk6GJQsqaUBKTNV-3">
          <mxGeometry relative="1" as="geometry" />
        </mxCell>
        <mxCell id="HQCcLXb8eK1zLoKDgTB1-12" value="Start" style="ellipse;whiteSpace=wrap;html=1;aspect=fixed;" vertex="1" parent="WIyWlLk6GJQsqaUBKTNV-1">
          <mxGeometry x="-300" y="635" width="50" height="50" as="geometry" />
        </mxCell>
        <mxCell id="HQCcLXb8eK1zLoKDgTB1-17" value="&amp;nbsp; Canary-HPA" style="swimlane;whiteSpace=wrap;html=1;" vertex="1" parent="WIyWlLk6GJQsqaUBKTNV-1">
          <mxGeometry x="-328.75" y="520" width="97.5" height="75" as="geometry">
            <mxRectangle x="435" y="10" width="120" height="30" as="alternateBounds" />
          </mxGeometry>
        </mxCell>
        <mxCell id="HQCcLXb8eK1zLoKDgTB1-18" value="&lt;div style=&quot;text-align: left;&quot;&gt;&lt;span style=&quot;background-color: initial;&quot;&gt;Min: -&lt;/span&gt;&lt;/div&gt;&lt;div style=&quot;text-align: left;&quot;&gt;&lt;span style=&quot;background-color: initial;&quot;&gt;Max:-&lt;/span&gt;&lt;/div&gt;" style="text;html=1;align=center;verticalAlign=middle;resizable=0;points=[];autosize=1;strokeColor=none;fillColor=none;" vertex="1" parent="HQCcLXb8eK1zLoKDgTB1-17">
          <mxGeometry x="23.75" y="30" width="50" height="40" as="geometry" />
        </mxCell>
        <mxCell id="HQCcLXb8eK1zLoKDgTB1-21" value="" style="edgeStyle=orthogonalEdgeStyle;rounded=0;orthogonalLoop=1;jettySize=auto;html=1;" edge="1" parent="WIyWlLk6GJQsqaUBKTNV-1" source="HQCcLXb8eK1zLoKDgTB1-19" target="HQCcLXb8eK1zLoKDgTB1-3">
          <mxGeometry relative="1" as="geometry" />
        </mxCell>
        <mxCell id="HQCcLXb8eK1zLoKDgTB1-19" value="confirm-traffic-increase (50%)" style="rounded=1;whiteSpace=wrap;html=1;fontSize=12;glass=0;strokeWidth=1;shadow=0;" vertex="1" parent="WIyWlLk6GJQsqaUBKTNV-1">
          <mxGeometry x="440" y="640" width="120" height="40" as="geometry" />
        </mxCell>
        <mxCell id="HQCcLXb8eK1zLoKDgTB1-30" value="" style="endArrow=none;html=1;rounded=0;" edge="1" parent="WIyWlLk6GJQsqaUBKTNV-1">
          <mxGeometry width="50" height="50" relative="1" as="geometry">
            <mxPoint x="-240" y="160" as="sourcePoint" />
            <mxPoint x="-150" y="160" as="targetPoint" />
          </mxGeometry>
        </mxCell>
        <mxCell id="HQCcLXb8eK1zLoKDgTB1-31" value="80" style="text;html=1;align=center;verticalAlign=middle;resizable=0;points=[];autosize=1;strokeColor=none;fillColor=none;" vertex="1" parent="WIyWlLk6GJQsqaUBKTNV-1">
          <mxGeometry x="-298.75" y="140" width="40" height="30" as="geometry" />
        </mxCell>
        <mxCell id="HQCcLXb8eK1zLoKDgTB1-34" value="20" style="text;html=1;align=center;verticalAlign=middle;resizable=0;points=[];autosize=1;strokeColor=none;fillColor=none;" vertex="1" parent="WIyWlLk6GJQsqaUBKTNV-1">
          <mxGeometry x="-300" y="260" width="40" height="30" as="geometry" />
        </mxCell>
        <mxCell id="HQCcLXb8eK1zLoKDgTB1-35" value="0" style="text;html=1;align=center;verticalAlign=middle;resizable=0;points=[];autosize=1;strokeColor=none;fillColor=none;" vertex="1" parent="WIyWlLk6GJQsqaUBKTNV-1">
          <mxGeometry x="-293.75" y="300" width="30" height="30" as="geometry" />
        </mxCell>
        <mxCell id="HQCcLXb8eK1zLoKDgTB1-39" value="" style="endArrow=none;html=1;rounded=0;" edge="1" parent="WIyWlLk6GJQsqaUBKTNV-1">
          <mxGeometry width="50" height="50" relative="1" as="geometry">
            <mxPoint x="640" y="240" as="sourcePoint" />
            <mxPoint x="800" y="160" as="targetPoint" />
          </mxGeometry>
        </mxCell>
        <mxCell id="HQCcLXb8eK1zLoKDgTB1-42" value="" style="endArrow=none;dashed=1;html=1;rounded=0;" edge="1" parent="WIyWlLk6GJQsqaUBKTNV-1">
          <mxGeometry width="50" height="50" relative="1" as="geometry">
            <mxPoint x="340" y="280" as="sourcePoint" />
            <mxPoint x="480" y="240" as="targetPoint" />
          </mxGeometry>
        </mxCell>
        <mxCell id="HQCcLXb8eK1zLoKDgTB1-43" value="60" style="text;html=1;align=center;verticalAlign=middle;resizable=0;points=[];autosize=1;strokeColor=none;fillColor=none;" vertex="1" parent="WIyWlLk6GJQsqaUBKTNV-1">
          <mxGeometry x="-300" y="180" width="40" height="30" as="geometry" />
        </mxCell>
        <mxCell id="HQCcLXb8eK1zLoKDgTB1-44" value="40" style="text;html=1;align=center;verticalAlign=middle;resizable=0;points=[];autosize=1;strokeColor=none;fillColor=none;" vertex="1" parent="WIyWlLk6GJQsqaUBKTNV-1">
          <mxGeometry x="-300" y="220" width="40" height="30" as="geometry" />
        </mxCell>
        <mxCell id="HQCcLXb8eK1zLoKDgTB1-45" value="" style="endArrow=none;html=1;rounded=0;" edge="1" parent="WIyWlLk6GJQsqaUBKTNV-1">
          <mxGeometry width="50" height="50" relative="1" as="geometry">
            <mxPoint x="480" y="240" as="sourcePoint" />
            <mxPoint x="640" y="240" as="targetPoint" />
          </mxGeometry>
        </mxCell>
        <mxCell id="HQCcLXb8eK1zLoKDgTB1-46" value="" style="endArrow=none;dashed=1;html=1;rounded=0;" edge="1" parent="WIyWlLk6GJQsqaUBKTNV-1">
          <mxGeometry width="50" height="50" relative="1" as="geometry">
            <mxPoint x="800" y="320" as="sourcePoint" />
            <mxPoint x="640" y="240" as="targetPoint" />
          </mxGeometry>
        </mxCell>
        <mxCell id="HQCcLXb8eK1zLoKDgTB1-47" value="&amp;nbsp; Primary-HPA" style="swimlane;whiteSpace=wrap;html=1;" vertex="1" parent="WIyWlLk6GJQsqaUBKTNV-1">
          <mxGeometry x="-328.75" y="440" width="97.5" height="75" as="geometry">
            <mxRectangle x="435" y="10" width="120" height="30" as="alternateBounds" />
          </mxGeometry>
        </mxCell>
        <mxCell id="HQCcLXb8eK1zLoKDgTB1-48" value="&lt;div style=&quot;text-align: left;&quot;&gt;&lt;span style=&quot;background-color: initial;&quot;&gt;Min: 80&lt;/span&gt;&lt;/div&gt;&lt;div style=&quot;text-align: left;&quot;&gt;&lt;span style=&quot;background-color: initial;&quot;&gt;Max:100&lt;/span&gt;&lt;/div&gt;" style="text;html=1;align=center;verticalAlign=middle;resizable=0;points=[];autosize=1;strokeColor=none;fillColor=none;" vertex="1" parent="HQCcLXb8eK1zLoKDgTB1-47">
          <mxGeometry x="13.75" y="30" width="70" height="40" as="geometry" />
        </mxCell>
        <mxCell id="HQCcLXb8eK1zLoKDgTB1-49" value="&amp;nbsp; Canary-HPA" style="swimlane;whiteSpace=wrap;html=1;" vertex="1" parent="WIyWlLk6GJQsqaUBKTNV-1">
          <mxGeometry x="-189.37" y="520" width="97.5" height="75" as="geometry">
            <mxRectangle x="435" y="10" width="120" height="30" as="alternateBounds" />
          </mxGeometry>
        </mxCell>
        <mxCell id="HQCcLXb8eK1zLoKDgTB1-50" value="&lt;div style=&quot;text-align: left;&quot;&gt;&lt;span style=&quot;background-color: initial;&quot;&gt;Min: 20&lt;/span&gt;&lt;/div&gt;&lt;div style=&quot;text-align: left;&quot;&gt;&lt;span style=&quot;background-color: initial;&quot;&gt;Max:100&lt;/span&gt;&lt;/div&gt;" style="text;html=1;align=center;verticalAlign=middle;resizable=0;points=[];autosize=1;strokeColor=none;fillColor=none;" vertex="1" parent="HQCcLXb8eK1zLoKDgTB1-49">
          <mxGeometry x="13.75" y="30" width="70" height="40" as="geometry" />
        </mxCell>
        <mxCell id="HQCcLXb8eK1zLoKDgTB1-51" value="&amp;nbsp; Primary-HPA" style="swimlane;whiteSpace=wrap;html=1;" vertex="1" parent="WIyWlLk6GJQsqaUBKTNV-1">
          <mxGeometry x="-189.37" y="440" width="97.5" height="75" as="geometry">
            <mxRectangle x="435" y="10" width="120" height="30" as="alternateBounds" />
          </mxGeometry>
        </mxCell>
        <mxCell id="HQCcLXb8eK1zLoKDgTB1-52" value="&lt;div style=&quot;text-align: left;&quot;&gt;&lt;span style=&quot;background-color: initial;&quot;&gt;Min: &lt;b&gt;&lt;font color=&quot;#ff0000&quot;&gt;20&lt;/font&gt;&lt;/b&gt;&lt;/span&gt;&lt;/div&gt;&lt;div style=&quot;text-align: left;&quot;&gt;&lt;span style=&quot;background-color: initial;&quot;&gt;Max:100&lt;/span&gt;&lt;/div&gt;" style="text;html=1;align=center;verticalAlign=middle;resizable=0;points=[];autosize=1;strokeColor=none;fillColor=none;" vertex="1" parent="HQCcLXb8eK1zLoKDgTB1-51">
          <mxGeometry x="13.75" y="30" width="70" height="40" as="geometry" />
        </mxCell>
        <mxCell id="HQCcLXb8eK1zLoKDgTB1-54" value="" style="endArrow=none;dashed=1;html=1;rounded=0;" edge="1" parent="WIyWlLk6GJQsqaUBKTNV-1">
          <mxGeometry width="50" height="50" relative="1" as="geometry">
            <mxPoint x="-240" y="320" as="sourcePoint" />
            <mxPoint x="-150" y="320" as="targetPoint" />
          </mxGeometry>
        </mxCell>
        <mxCell id="HQCcLXb8eK1zLoKDgTB1-55" value="" style="endArrow=none;dashed=1;html=1;rounded=0;" edge="1" parent="WIyWlLk6GJQsqaUBKTNV-1">
          <mxGeometry width="50" height="50" relative="1" as="geometry">
            <mxPoint x="-150" y="320" as="sourcePoint" />
            <mxPoint x="-150" y="280" as="targetPoint" />
          </mxGeometry>
        </mxCell>
        <mxCell id="HQCcLXb8eK1zLoKDgTB1-56" value="" style="endArrow=none;dashed=1;html=1;rounded=0;" edge="1" parent="WIyWlLk6GJQsqaUBKTNV-1">
          <mxGeometry width="50" height="50" relative="1" as="geometry">
            <mxPoint x="-150" y="280" as="sourcePoint" />
            <mxPoint x="340" y="280" as="targetPoint" />
          </mxGeometry>
        </mxCell>
        <mxCell id="HQCcLXb8eK1zLoKDgTB1-57" value="" style="endArrow=none;html=1;rounded=0;fontColor=#FF0000;" edge="1" parent="WIyWlLk6GJQsqaUBKTNV-1">
          <mxGeometry width="50" height="50" relative="1" as="geometry">
            <mxPoint x="-150" y="200" as="sourcePoint" />
            <mxPoint x="-150" y="160" as="targetPoint" />
          </mxGeometry>
        </mxCell>
        <mxCell id="HQCcLXb8eK1zLoKDgTB1-58" value="" style="endArrow=none;html=1;rounded=0;fontColor=#FF0000;" edge="1" parent="WIyWlLk6GJQsqaUBKTNV-1">
          <mxGeometry width="50" height="50" relative="1" as="geometry">
            <mxPoint x="-150" y="200" as="sourcePoint" />
            <mxPoint x="340" y="200" as="targetPoint" />
          </mxGeometry>
        </mxCell>
        <mxCell id="HQCcLXb8eK1zLoKDgTB1-59" value="" style="endArrow=none;html=1;rounded=0;fontColor=#FF0000;" edge="1" parent="WIyWlLk6GJQsqaUBKTNV-1">
          <mxGeometry width="50" height="50" relative="1" as="geometry">
            <mxPoint x="340" y="200" as="sourcePoint" />
            <mxPoint x="480" y="240" as="targetPoint" />
          </mxGeometry>
        </mxCell>
        <mxCell id="HQCcLXb8eK1zLoKDgTB1-65" value="&amp;nbsp; Canary-HPA" style="swimlane;whiteSpace=wrap;html=1;" vertex="1" parent="WIyWlLk6GJQsqaUBKTNV-1">
          <mxGeometry x="610.63" y="520" width="97.5" height="75" as="geometry">
            <mxRectangle x="435" y="10" width="120" height="30" as="alternateBounds" />
          </mxGeometry>
        </mxCell>
        <mxCell id="HQCcLXb8eK1zLoKDgTB1-66" value="&lt;div style=&quot;text-align: left;&quot;&gt;&lt;span style=&quot;background-color: initial;&quot;&gt;Min: 20&lt;/span&gt;&lt;/div&gt;&lt;div style=&quot;text-align: left;&quot;&gt;&lt;span style=&quot;background-color: initial;&quot;&gt;Max:100&lt;/span&gt;&lt;/div&gt;" style="text;html=1;align=center;verticalAlign=middle;resizable=0;points=[];autosize=1;strokeColor=none;fillColor=none;" vertex="1" parent="HQCcLXb8eK1zLoKDgTB1-65">
          <mxGeometry x="13.75" y="30" width="70" height="40" as="geometry" />
        </mxCell>
        <mxCell id="HQCcLXb8eK1zLoKDgTB1-67" value="&amp;nbsp; Primary-HPA" style="swimlane;whiteSpace=wrap;html=1;" vertex="1" parent="WIyWlLk6GJQsqaUBKTNV-1">
          <mxGeometry x="610.63" y="440" width="97.5" height="75" as="geometry">
            <mxRectangle x="435" y="10" width="120" height="30" as="alternateBounds" />
          </mxGeometry>
        </mxCell>
        <mxCell id="HQCcLXb8eK1zLoKDgTB1-68" value="&lt;div style=&quot;text-align: left;&quot;&gt;&lt;span style=&quot;background-color: initial;&quot;&gt;Min: &lt;b&gt;&lt;font color=&quot;#ff0000&quot;&gt;20&lt;/font&gt;&lt;/b&gt;&lt;/span&gt;&lt;/div&gt;&lt;div style=&quot;text-align: left;&quot;&gt;&lt;span style=&quot;background-color: initial;&quot;&gt;Max:100&lt;/span&gt;&lt;/div&gt;" style="text;html=1;align=center;verticalAlign=middle;resizable=0;points=[];autosize=1;strokeColor=none;fillColor=none;" vertex="1" parent="HQCcLXb8eK1zLoKDgTB1-67">
          <mxGeometry x="13.75" y="30" width="70" height="40" as="geometry" />
        </mxCell>
        <mxCell id="HQCcLXb8eK1zLoKDgTB1-69" value="&amp;nbsp; Canary-HPA" style="swimlane;whiteSpace=wrap;html=1;" vertex="1" parent="WIyWlLk6GJQsqaUBKTNV-1">
          <mxGeometry x="770" y="520" width="97.5" height="75" as="geometry">
            <mxRectangle x="435" y="10" width="120" height="30" as="alternateBounds" />
          </mxGeometry>
        </mxCell>
        <mxCell id="HQCcLXb8eK1zLoKDgTB1-70" value="&lt;div style=&quot;text-align: left;&quot;&gt;&lt;span style=&quot;background-color: initial;&quot;&gt;Min: -&lt;/span&gt;&lt;/div&gt;&lt;div style=&quot;text-align: left;&quot;&gt;&lt;span style=&quot;background-color: initial;&quot;&gt;Max:-&lt;/span&gt;&lt;/div&gt;" style="text;html=1;align=center;verticalAlign=middle;resizable=0;points=[];autosize=1;strokeColor=none;fillColor=none;" vertex="1" parent="HQCcLXb8eK1zLoKDgTB1-69">
          <mxGeometry x="23.75" y="30" width="50" height="40" as="geometry" />
        </mxCell>
        <mxCell id="HQCcLXb8eK1zLoKDgTB1-71" value="&amp;nbsp; Primary-HPA" style="swimlane;whiteSpace=wrap;html=1;" vertex="1" parent="WIyWlLk6GJQsqaUBKTNV-1">
          <mxGeometry x="770" y="440" width="97.5" height="75" as="geometry">
            <mxRectangle x="435" y="10" width="120" height="30" as="alternateBounds" />
          </mxGeometry>
        </mxCell>
        <mxCell id="HQCcLXb8eK1zLoKDgTB1-72" value="&lt;div style=&quot;text-align: left;&quot;&gt;&lt;span style=&quot;background-color: initial;&quot;&gt;Min: &lt;font color=&quot;#ff0000&quot;&gt;&lt;b&gt;80&lt;/b&gt;&lt;/font&gt;&lt;/span&gt;&lt;/div&gt;&lt;div style=&quot;text-align: left;&quot;&gt;&lt;span style=&quot;background-color: initial;&quot;&gt;Max:100&lt;/span&gt;&lt;/div&gt;" style="text;html=1;align=center;verticalAlign=middle;resizable=0;points=[];autosize=1;strokeColor=none;fillColor=none;" vertex="1" parent="HQCcLXb8eK1zLoKDgTB1-71">
          <mxGeometry x="13.75" y="30" width="70" height="40" as="geometry" />
        </mxCell>
      </root>
    </mxGraphModel>
  </diagram>
</mxfile>
